<?xml version="1.0" encoding="utf-8"?>
<svg xmlns="http://www.w3.org/2000/svg" viewBox="0 0 180 180" width="180px" height="180px">
  <path style="fill: rgb(8, 9, 10);" d="M 135 0 C 163.125 0 180 16.875 180 45 C 180 72.445 180 107.546 180 135 C 180 163.125 163.125 180 135 180 C 107.527 180 72.459 180 45 180 C 16.875 180 0 163.125 0 135 L 0 45 C 0 11.25 16.875 0 45 0 C 72.447 0 107.541 0 135 0 Z" transform="matrix(1, 0, 0, 1, 2.842170943040401e-14, 0)"/>
  <g transform="matrix(0.7619049549102783, 0, 0, 0.7619049549102783, 21.40713882446289, 21.42816925048828)">
    <path style="paint-order: fill; fill-rule: nonzero; fill: rgb(251, 251, 251);" d="M 144.844 30.938 L 89.535 149.063 L 22.5 149.063 L 22.5 81.562 C 22.5 47.813 39.259 30.938 72.776 30.938 L 144.844 30.938 Z"/>
    <ellipse style="fill: rgb(251, 251, 251);" cx="136.406" cy="127.969" rx="21.094" ry="21.094"/>
  </g>
</svg>