<svg xmlns="http://www.w3.org/2000/svg" viewBox="0 0 1024 1024" width="1024px" height="1024px">
  <path style="fill: rgb(8, 9, 10);" d="M 768 0 C 928 0 1024 96 1024 256 C 1024 412.134 1024 611.816 1024 768 C 1024 928 928 1024 768 1024 C 611.711 1024 412.21 1024 256 1024 C 96 1024 0 928 0 768 L 0 256 C 0 64 96 0 256 0 C 412.142 0 611.788 0 768 0 Z"/>
  <path style="paint-order: fill; fill-rule: nonzero; fill: rgb(251, 251, 251);" d="M 824 176 L 509.355 848 L 128 848 L 128 463.999 C 128 272 223.339 176 414.012 176 L 824 176 Z"/>
  <ellipse style="fill: rgb(251, 251, 251);" cx="776" cy="728.001" rx="120" ry="119.999"/>
</svg>